HIERARCHY
ROOT Hips
{
	OFFSET -14.64140 90.27770 -84.91600
	CHANNELS 6 Xposition Yposition Zposition Zrotation Xrotation Yrotation
	JOINT Spine
	{
		OFFSET 0.00000 13.20850 -1.60436
		CHANNELS 3 Zrotation Xrotation Yrotation
		JOINT Spine1
		{
			OFFSET 0.00000 8.61716 0.00000
			CHANNELS 3 Zrotation Xrotation Yrotation
			JOINT Spine2
			{
				OFFSET 0.00000 8.61717 0.00000
				CHANNELS 3 Zrotation Xrotation Yrotation
				JOINT Spine3
				{
					OFFSET 0.00000 8.61717 0.00000
					CHANNELS 3 Zrotation Xrotation Yrotation
					JOINT Neck
					{
						OFFSET 0.00000 11.07920 1.10792
						CHANNELS 3 Zrotation Xrotation Yrotation
						JOINT Neck1
						{
							OFFSET 0.00000 7.08032 0.00000
							CHANNELS 3 Zrotation Xrotation Yrotation
							JOINT Head
							{
								OFFSET 0.00000 7.08031 0.00000
								CHANNELS 3 Zrotation Xrotation Yrotation
								End site
								{
									OFFSET 0.00000 0.00000 0.00000
								}
							}
						}
					}
					JOINT RightShoulder
					{
						OFFSET -0.01000 7.91373 5.19711
						CHANNELS 3 Zrotation Xrotation Yrotation
						JOINT RightArm
						{
							OFFSET -18.41580 0.00000 0.00000
							CHANNELS 3 Zrotation Xrotation Yrotation
							JOINT RightForeArm
							{
								OFFSET -29.11090 0.00000 0.00000
								CHANNELS 3 Zrotation Xrotation Yrotation
								JOINT RightHand
								{
									OFFSET -24.65040 0.00000 0.00000
									CHANNELS 3 Zrotation Xrotation Yrotation
									JOINT RightHandThumb1
									{
										OFFSET -5.35114 -0.85590 3.97906
										CHANNELS 3 Zrotation Xrotation Yrotation
										JOINT RightHandThumb2
										{
											OFFSET -4.52789 0.00000 0.00000
											CHANNELS 3 Zrotation Xrotation Yrotation
											JOINT RightHandThumb3
											{
												OFFSET -2.46976 0.00000 0.00000
												CHANNELS 3 Zrotation Xrotation Yrotation
												End site
												{
													OFFSET 0.00000 0.00000 0.00000
												}
											}
										}
									}
									JOINT RightHandIndex1
									{
										OFFSET -14.26970 0.00000 2.88139
										CHANNELS 3 Zrotation Xrotation Yrotation
										JOINT RightHandIndex2
										{
											OFFSET -5.48836 0.00000 0.00000
											CHANNELS 3 Zrotation Xrotation Yrotation
											JOINT RightHandIndex3
											{
												OFFSET -3.01859 0.00000 0.00000
												CHANNELS 3 Zrotation Xrotation Yrotation
												End site
												{
													OFFSET 0.00000 0.00000 0.00000
												}
											}
										}
									}
									JOINT RightHandMiddle1
									{
										OFFSET -14.26970 0.00000 -0.09147
										CHANNELS 3 Zrotation Xrotation Yrotation
										JOINT RightHandMiddle2
										{
											OFFSET -6.17441 0.00000 0.00000
											CHANNELS 3 Zrotation Xrotation Yrotation
											JOINT RightHandMiddle3
											{
												OFFSET -3.56743 0.00000 0.00000
												CHANNELS 3 Zrotation Xrotation Yrotation
												End site
												{
													OFFSET 0.00000 0.00000 0.00000
												}
											}
										}
									}
									JOINT RightHandRing1
									{
										OFFSET -12.69180 0.00000 -3.06433
										CHANNELS 3 Zrotation Xrotation Yrotation
										JOINT RightHandRing2
										{
											OFFSET -5.62556 0.00000 0.00000
											CHANNELS 3 Zrotation Xrotation Yrotation
											JOINT RightHandRing3
											{
												OFFSET -3.56744 0.00000 0.00000
												CHANNELS 3 Zrotation Xrotation Yrotation
												End site
												{
													OFFSET 0.00000 0.00000 0.00000
												}
											}
										}
									}
									JOINT RightHandPinky1
									{
										OFFSET -11.11390 0.00000 -6.03719
										CHANNELS 3 Zrotation Xrotation Yrotation
										JOINT RightHandPinky2
										{
											OFFSET -4.52789 0.00000 0.00000
											CHANNELS 3 Zrotation Xrotation Yrotation
											JOINT RightHandPinky3
											{
												OFFSET -2.46976 0.00000 0.00000
												CHANNELS 3 Zrotation Xrotation Yrotation
												End site
												{
													OFFSET 0.00000 0.00000 0.00000
												}
											}
										}
									}
								}
							}
						}
					}
					JOINT LeftShoulder
					{
						OFFSET 0.01000 7.91373 5.19711
						CHANNELS 3 Zrotation Xrotation Yrotation
						JOINT LeftArm
						{
							OFFSET 18.41580 0.00000 0.00000
							CHANNELS 3 Zrotation Xrotation Yrotation
							JOINT LeftForeArm
							{
								OFFSET 29.11090 0.00000 0.00000
								CHANNELS 3 Zrotation Xrotation Yrotation
								JOINT LeftHand
								{
									OFFSET 24.65040 0.00000 0.00000
									CHANNELS 3 Zrotation Xrotation Yrotation
									JOINT LeftHandThumb1
									{
										OFFSET 5.35114 -0.85590 3.97906
										CHANNELS 3 Zrotation Xrotation Yrotation
										JOINT LeftHandThumb2
										{
											OFFSET 4.52789 0.00000 0.00000
											CHANNELS 3 Zrotation Xrotation Yrotation
											JOINT LeftHandThumb3
											{
												OFFSET 2.46977 0.00000 0.00000
												CHANNELS 3 Zrotation Xrotation Yrotation
												End site
												{
													OFFSET 0.00000 0.00000 0.00000
												}
											}
										}
									}
									JOINT LeftHandIndex1
									{
										OFFSET 14.26970 0.00000 2.88139
										CHANNELS 3 Zrotation Xrotation Yrotation
										JOINT LeftHandIndex2
										{
											OFFSET 5.48836 0.00000 0.00000
											CHANNELS 3 Zrotation Xrotation Yrotation
											JOINT LeftHandIndex3
											{
												OFFSET 3.01859 0.00000 0.00000
												CHANNELS 3 Zrotation Xrotation Yrotation
												End site
												{
													OFFSET 0.00000 0.00000 0.00000
												}
											}
										}
									}
									JOINT LeftHandMiddle1
									{
										OFFSET 14.26970 0.00000 -0.09147
										CHANNELS 3 Zrotation Xrotation Yrotation
										JOINT LeftHandMiddle2
										{
											OFFSET 6.17440 0.00000 0.00000
											CHANNELS 3 Zrotation Xrotation Yrotation
											JOINT LeftHandMiddle3
											{
												OFFSET 3.56744 0.00000 0.00000
												CHANNELS 3 Zrotation Xrotation Yrotation
												End site
												{
													OFFSET 0.00000 0.00000 0.00000
												}
											}
										}
									}
									JOINT LeftHandRing1
									{
										OFFSET 12.69180 0.00000 -3.06433
										CHANNELS 3 Zrotation Xrotation Yrotation
										JOINT LeftHandRing2
										{
											OFFSET 5.62556 0.00000 0.00000
											CHANNELS 3 Zrotation Xrotation Yrotation
											JOINT LeftHandRing3
											{
												OFFSET 3.56744 0.00000 0.00000
												CHANNELS 3 Zrotation Xrotation Yrotation
												End site
												{
													OFFSET 0.00000 0.00000 0.00000
												}
											}
										}
									}
									JOINT LeftHandPinky1
									{
										OFFSET 11.11390 0.00000 -6.03719
										CHANNELS 3 Zrotation Xrotation Yrotation
										JOINT LeftHandPinky2
										{
											OFFSET 4.52789 0.00000 0.00000
											CHANNELS 3 Zrotation Xrotation Yrotation
											JOINT LeftHandPinky3
											{
												OFFSET 2.46976 0.00000 0.00000
												CHANNELS 3 Zrotation Xrotation Yrotation
												End site
												{
													OFFSET 0.00000 0.00000 0.00000
												}
											}
										}
									}
								}
							}
						}
					}
					JOINT pCube4
					{
						OFFSET 0.00000 10.91090 1.10792
						CHANNELS 3 Zrotation Xrotation Yrotation
						End site
						{
							OFFSET 0.00000 0.00000 0.00000
						}
					}
				}
			}
		}
	}
	JOINT RightUpLeg
	{
		OFFSET -9.98441 0.00000 0.00000
		CHANNELS 3 Zrotation Xrotation Yrotation
		JOINT RightLeg
		{
			OFFSET 0.00000 -42.11790 0.00000
			CHANNELS 3 Zrotation Xrotation Yrotation
			JOINT RightFoot
			{
				OFFSET 0.00000 -45.00020 -0.00001
				CHANNELS 3 Zrotation Xrotation Yrotation
				JOINT RightForeFoot
				{
					OFFSET 0.00000 -3.74820 0.00000
					CHANNELS 3 Zrotation Xrotation Yrotation
					JOINT RightToeBase
					{
						OFFSET 0.00000 0.06325 14.43120
						CHANNELS 3 Zrotation Xrotation Yrotation
						End site
						{
							OFFSET 0.00000 0.00000 0.00000
						}
					}
				}
			}
		}
	}
	JOINT LeftUpLeg
	{
		OFFSET 9.98441 0.00000 0.00000
		CHANNELS 3 Zrotation Xrotation Yrotation
		JOINT LeftLeg
		{
			OFFSET 0.00000 -42.11800 0.00000
			CHANNELS 3 Zrotation Xrotation Yrotation
			JOINT LeftFoot
			{
				OFFSET 0.00000 -45.00070 0.00000
				CHANNELS 3 Zrotation Xrotation Yrotation
				JOINT LeftForeFoot
				{
					OFFSET 0.00000 -3.74824 0.00000
					CHANNELS 3 Zrotation Xrotation Yrotation
					JOINT LeftToeBase
					{
						OFFSET 0.00000 0.06325 14.43110
						CHANNELS 3 Zrotation Xrotation Yrotation
						End site
						{
							OFFSET 0.00000 0.00000 0.00000
						}
					}
				}
			}
		}
	}
}
MOTION
Frames: 4
Frame Time: 0.050000
-0.005605519696066784 0.036461791469350406 -0.04177686140778443 -0.03276320135709065 -0.030483136897651426 -0.012388834168229883 -0.09244620183362501 3.108631298251997 -1.286509467042708 -0.5363583137779467 3.405507245604634 0.2614594102828314 -0.4589668110860862 -1.2662114339694017 -1.6540992370222802 -0.8576344358777666 -0.6057241131029613 -0.7547746321486515 -1.484923510716785 10.89705379735747 2.2800452337716544 0.0917576850679122 -0.536100477008781 5.651751964251877 -0.5870876047257024 -15.445319102107014 0.4828783782641637 -1.7909271114867193 1.3558126629400775 -12.878812600182956 70.52239071713144 5.82730773194822 14.37513727011765 -0.9513584139643951 8.673176559994888 83.3978000025214 21.29256695265453 -0.45886173315429635 -2.7211073791121843 4.495347289667589 -0.14421865877724427 -1.6429991270908186 -0.017465446682423405 0.021726361968988583 -56.25502851161381 0.03214666990927392 0.025888508011414225 -56.23132752603899 -38.78722568881477 -0.007856583010860566 -0.007293758102845212 0.01006246494077313 0.002550423389222749 -0.036839175173077846 0.002372281832171129 0.01639805690114863 -0.0389230925367135 -36.662914010385975 -0.04710754742163 -0.04978815787680211 0.03604559658765166 0.001194301066310204 0.047736382327532245 -0.04972133226385176 0.04019189861627174 0.026463778822111532 -19.787759842215987 -0.021160357549882745 0.014596087755652194 -0.005103700355338977 -0.027356760154046148 0.01047534599402216 0.03847000256254386 0.02040009562948018 -0.03692013086902476 24.06297041313878 0.01483923717597657 -8.457516451144541e-05 28.850756068566742 -0.032820807902588754 0.02547168918172837 28.8213481713429 -0.021762322951352445 0.04059896030464607 7.856421610419333 2.080277965531385 11.21138645797252 -63.44574832541631 13.409327956862914 -36.62684490800976 11.89841946760487 -7.934089673622784 -70.32623715882487 -19.42721256986743 -0.08943086051791531 2.1998683644366777 -0.4834819925251868 0.07889570314829943 -8.114368772710522 -0.0026859370912507 -0.018716942258285 44.550067789889546 -0.01099400105289756 0.03409675094188492 44.57977215734074 12.461843945288546 -0.035985622983076136 -0.003543862355213303 -0.005536317272736678 -0.036566868802689265 -0.009531511692471567 -0.022827497821012368 0.013518210669742738 -0.03252175640832274 11.05970573200512 0.005405927150219758 -0.0007327211020106438 0.034516287658512536 -0.04527695306229532 0.03454733788882559 0.02132684742526582 0.020151697291952434 -0.00608219891262235 4.75539442784625 0.017307381976895027 0.033603460303292414 0.019954395293093917 0.005708645888992606 0.0439627470192046 -0.035071537452159456 0.002653840302842122 0.02346062312152683 -5.647841793567717 -0.017298623348831168 0.04261849868696911 -6.742936739326947 -0.0026900236840757064 -0.02554051914450799 -6.733643846558206 -0.04481292617022969 -0.03400144179147416 -0.007692593362750968 0.04800776664579344 0.007847795419841212 8.064144807848713 3.5404776787886667 -19.26542984550903 0.004222706229146098 10.374008819631444 -0.027890731630863846 -5.592752547471477 -15.703606563324756 3.1561983642951876 0.006595909402715192 -0.022612235370312816 0.0323590050177283 -0.012686045350942636 4.710195188463341 -0.003920666328267097 12.493542406469631 -8.239623049514933 6.90702139671307 -0.037927143257403886 46.41144135982139 0.04096566126481245 -4.308766154109124 -14.742966047863971 -3.803846816119861 0.02435395863249256 0.04981069657852887 0.03123766087871808 0.023166485429404155 -10.745696835363663 0.04230972933011371 
0.01961062314834015 0.004919418547474601 -0.028543432317594056 -0.022849741622090143 0.04477273642003172 0.00032622409148051084 -0.10860773797380047 3.277496375790766 -1.3000910132334391 -0.5094845001279009 3.336332710529729 0.29971579905500323 -0.5294815479381374 -1.1886331964007608 -1.7416930862378086 -0.8209143566276597 -0.5512823856669579 -0.7508977466272849 -1.462038741410169 10.67166443292928 2.444247424867096 0.0900801098669756 -0.6593486372655197 5.92054828787762 -0.6590912325855031 -15.636711433020574 0.4772767686952072 -1.6879642092612541 1.3907121164474674 -12.778239966748524 70.7544685921557 5.0722588585508905 13.906241952306933 -1.4835410817787413 8.556638879572654 82.53139242582922 20.6315932106613 -0.37199627765957877 -2.4218172122307955 4.565885111947455 -0.15313139666756642 -1.6111553772729765 0.021726328101495503 -0.0200299086190251 -56.204915904028205 0.025146584856065232 -0.018245100851768246 -56.236477518196196 -38.81463885686426 0.031155485448627947 -0.01409511303926477 -0.03618580644295015 0.020115906186372757 0.015257224889370955 0.02114578111539511 -0.029117387283007126 -0.018121786884466445 -36.69251098008392 0.042471462316771 -0.03611158999696474 0.0014332312003191125 0.03051571863735912 -0.01921706967199906 0.012058494485250188 -0.04195444672874745 0.013326636903723441 -19.76782547635334 -0.0014488955480583667 -0.010931414742201943 0.013824489036504468 -0.047941024014363634 -0.016430685851319685 0.02552038084852299 -0.014870915773385684 -0.02653456801547361 24.051017316561303 0.013162487588994975 -0.03684424204540526 28.90659789376809 0.025095469857928845 -0.01831322234427216 28.862290939040015 -0.007756768404355454 -0.0302099444050592 7.681140737284285 2.0527013151097395 11.061040463593663 -63.35404262848929 14.127512125459953 -35.965305335532385 12.819395424771068 -8.57883429150204 -69.78023567128857 -18.41828631298534 -0.26996999850246994 2.6106821176082615 -0.5049655586327018 0.06998080042110286 -8.091729127730087 -0.035738873653090766 -0.03071797432306872 44.60934919984741 -0.04819171469634689 -0.022113710582920006 44.54266436618132 12.467564567404397 0.03725359661824956 -0.03855254068806942 0.026158946517058263 0.009472362206949973 -0.009754016635048147 -0.04747966977494939 0.04728937030848792 0.018109991159829256 11.114885798602288 0.005291968372741522 -0.03031326072812902 -0.027696746744312963 -0.01506620355407161 -0.01737447216789751 0.047362217554867664 0.0030674471605088406 0.023744028220227895 4.727585930462089 -0.0027843006401342754 0.03873162192298612 0.0030371455367823115 -0.01640552434367532 -0.020415104370202757 -0.020090339782866676 0.03828348687976069 -0.014693878030640798 -5.59381907044733 -0.03826102939476881 0.004447206113735177 -6.754055588567788 -0.037539584836565935 0.02113978776966564 -6.731872000558998 0.0015415316737759541 0.028575403438984542 0.02243220732836792 -0.021810927991411173 0.031206825268631038 8.027610321458718 3.463814132555934 -19.229117602980192 -0.01631028777451938 10.395945621482381 -0.019887780782854313 -5.639463406587534 -15.657214825707621 3.1677254932370524 -0.03439932733796265 -0.00944497757721729 0.0035495603577714676 0.030283613815169294 4.693509026763827 0.01878517389121137 12.436021199140514 -8.188838863584138 6.848409004517771 0.02542050441590176 46.36974521098404 -0.014776522564624167 -4.347585513999333 -14.779833514125048 -3.8139171407138264 0.01210095503673936 -0.04008183335484942 0.0012531673156972805 -0.01580734465822054 -10.732783374363697 0.0315848303727178 
0.006124134595742958 0.029895703681633124 -0.04144022965417462 -0.03026755672122566 0.011780914161706504 0.0443737445093706 -0.26787238100479727 3.3283291450370474 -1.2635337901459323 -0.5065419783818341 3.362182608958089 0.32789911908783415 -0.4815972807348017 -1.2275907786404099 -1.7640673281146602 -0.9050288833454351 -0.6091857938872692 -0.8176357066169776 -1.5692697635397024 10.592856746370584 2.5705603029995747 0.10306392807553258 -0.7646764900121311 6.312240936527059 -0.6598038884820846 -15.7999824940804 0.5199543561203633 -1.6236801231391964 1.3935629977212316 -12.66818478448452 70.75191185582231 3.9739207959945264 13.502278747278023 -2.266689065353162 8.72319534567521 81.20111541117112 20.94081323538142 -0.3841221976259527 -2.081667092936542 4.494567682976875 -0.09385764759991366 -1.5962285539326626 0.018413631844785797 0.03069439464931554 -56.259239953454035 -0.033351611469365584 0.04893977101534354 -56.220163958089316 -38.78785267319606 -0.012197969901511655 0.031737167368823954 0.038568034159047734 0.031721676952884095 0.03224566371962138 -0.047489903083372725 -0.01784776383592488 -0.036410246833850086 -36.675566588648394 0.0078106017624659674 -0.004130380463614231 -0.045742793833095666 0.04835078899220595 -0.019946061007813532 0.036476421487868116 -0.0377880463048896 0.033410253900045137 -19.76526258443206 -0.0021833529839076675 0.006874975634315051 0.020380289123184167 -0.033651730785953654 -0.03746733931795737 -0.012481308320686032 -0.02950692086684804 -0.004933334371380342 24.06517009856365 -0.020943046345342508 -0.020986477565827204 28.852276330456174 0.02347126448608326 0.019773804906355566 28.834679781929687 0.004550877504907578 -0.00866875314496825 7.44549616688629 1.9469795344055205 10.927477645317891 -63.913207527928044 14.377844236400557 -35.23763560319842 11.589111107248035 -8.034715635868487 -68.23284809117273 -18.649563570891967 -0.2417839746092639 2.861755080651689 -0.4954354839249029 0.03507662303291675 -8.119201086221127 0.001962333015859017 0.013741113239581791 44.58996884384696 0.015238532206327222 -0.018440275919889365 44.5853032925218 12.428622382919864 -0.012028512162551843 -0.023013873416922365 0.04765564975531029 -0.008030561214465465 -0.03041880262718905 0.03439963279996896 -0.01396251302070003 -0.037975180527990954 11.112615098067433 0.03467501685850656 -0.027112813626729987 0.03914083466842353 0.03573109466432176 -0.0020320829186441514 0.014197832410729874 0.024559438950326994 -0.02269185685329137 4.8034504035812695 0.03883578589015037 0.038133766002539565 -0.011611914184566252 0.021052103883576298 -0.03602718933035698 -0.0297202891893073 -0.00625269985651136 -0.0320258235875713 -5.618638070453869 0.014428616217484569 -0.03381672154772055 -6.703329669170852 0.032047027317389454 -0.026103241146525152 -6.763935133534112 -0.019471618742403933 0.027564602035997525 -0.0029308226420649537 0.04116296003207068 0.016445315258086995 8.082808024911046 3.49676434366053 -19.172815659747187 0.018545651062503107 10.36462414569533 0.014742280873418225 -5.617454396834271 -15.678966571039297 3.1764189912485543 -0.045864295193610176 0.03407228430819637 -0.044502355267526696 -0.028767321623851004 4.675949388939639 0.004199948418479057 12.485525810526715 -8.227373330390165 6.8814445648458324 0.013206800366861313 46.35433988988521 -0.0005859665895326458 -4.290585849890098 -14.771873368875529 -3.8751883420378648 -0.02238881099430892 0.046453332044550474 -0.021642143020516664 -0.0304349297082791 -10.748271144882485 0.008644405620595421 
-0.039924787419880176 0.03517127332656862 -0.0247733222531876 0.0008246886252264824 -0.023401026646660338 -0.003107682194573369 -0.2944518090677065 3.362717429070588 -1.2285102447461471 -0.48426796848768694 3.415052393098346 0.24690162265781387 -0.463295072920635 -1.2575809392521309 -1.8655729359360433 -0.987956492576433 -0.6949662160882039 -0.797723347219411 -1.5666919498271683 10.507768243671306 2.7114477386824394 0.08816204600888324 -0.8531514332418416 6.622465457610397 -0.7054498211214486 -15.883811335567614 0.5681945497598484 -1.7376836175805517 1.3936683296183199 -12.736247262883376 70.45914129899786 1.3870254070259804 13.80689873179583 -3.6967528719319294 8.64789471950504 79.45702970189778 21.19539994438537 -0.38791212869852965 -1.6753127952653875 4.543652039459778 -0.17266482436636657 -1.6320757579207283 0.0015422956478578459 0.0007884003872128943 -56.220801572790236 0.03371235771548545 0.045376836123333084 -56.218971737226454 -38.74946659434197 0.007691654684490057 -0.01276568373709683 0.02962545434494853 0.015037727281027516 0.002907557541170861 -0.023969560291821856 0.006750348075978549 0.027940306590388722 -36.68060727924092 -0.03766079521405841 0.028009534419802935 -0.04500264766851676 -0.019053377744294286 -0.03905413443164579 0.000621900216563342 -0.0027044143583355466 -0.0009918254055609004 -19.767500233500197 0.025717652422808032 0.02152326290496075 0.020707729897790392 0.010567667574772984 0.012840397083714088 0.0017047523582754466 0.03682134940056365 0.0025947555540057777 24.076690039382463 0.02531650359379063 0.019736309447651118 28.82883731659779 -0.03838304880755624 0.008701965750714972 28.844298981195145 -0.047078081837510076 0.005994271787846906 7.5107938238348435 1.9876291193671687 10.85319042288787 -64.49342905242581 13.654797926438267 -35.1640611596795 10.289547194819516 -7.188784334307615 -66.50013969980785 -18.715101675140648 -0.02848769375074269 2.8551187110671505 -0.4559972365333827 0.05017897791625145 -8.136459408567008 0.026661401919968037 -0.01113292142479652 44.53995717695467 -0.027484364710394622 -0.017318376823821594 44.561484737456794 12.467571461184882 0.033741935627405566 -0.03681002572391696 0.014512643294999827 -0.02058741952817677 0.022904359837232286 -0.03072089408988948 -0.0008734402783452065 0.022102578426268185 11.152467514500305 0.012586804195775387 -0.039717580034090226 -0.040376703064125705 -0.04336535082749081 -0.01716342343610733 -0.0023934874513435998 -0.04950657067224644 -0.0329287017906491 4.809120677763063 -0.01180654707965206 -0.0013301632486925588 0.04927386368844539 -0.02439002235593947 -0.0033290968300196157 -0.0018444425294230193 -0.04552708742935846 0.04664436208444019 -5.605131067305701 0.011011711113356673 0.017849504025609305 -6.72634402947175 -0.007112472800645796 -0.027529365580252735 -6.7632057546458695 0.04433195616805727 -0.008990657342181687 -0.020749176947309735 -0.03640528464906373 -0.0109871942487867 8.078982750230168 3.469977456940553 -19.196380167573643 -0.01427391969660598 10.429332829682247 0.04940735671784571 -5.654120828167519 -15.652645324520023 3.2127725163119054 -0.030399370268085427 0.032059137692495486 -0.047460299033352756 -0.033724763258434924 4.681245445727216 0.04941154992114844 12.457054688819653 -8.234068178158399 6.908037027696609 0.02363944650590673 46.33308266864653 -0.011031040453329276 -4.3460803878388425 -14.7279005278216 -3.7977123894454987 0.003828602612868088 0.0309602635559096 -0.0023424257236954187 -0.0010077679547602755 -10.773876192135045 0.02353643548149609 
